<?xml version="1.0" encoding="utf-8"?>
<!-- Generator: Adobe Illustrator 24.2.1, SVG Export Plug-In . SVG Version: 6.00 Build 0)  -->
<svg version="1.1" id="Layer_1" xmlns="http://www.w3.org/2000/svg" xmlns:xlink="http://www.w3.org/1999/xlink" x="0px" y="0px"
	 viewBox="0 0 1173.4 376" style="enable-background:new 0 0 1173.4 376;" xml:space="preserve">
<style type="text/css">
	.st0{fill-rule:evenodd;clip-rule:evenodd;fill:#1B4965;}
	.st1{fill:#1B4965;}
	.st2{fill:#FFFFFF;}
	.st3{fill:#F7DBA7;}
</style>
<g id="Instagram">
	<g id="Desktop" transform="translate(140.000000, -90.000000)">
		<g id="Group" transform="translate(-140.000000, 90.000000)">
			<rect id="blue-bg" x="149.4" class="st0" width="1024" height="376"/>
			<g id="white-scribble" transform="translate(439.000000, 46.000000)">
				<path id="Shape" class="st1" d="M626.3,116.1c-3-15-8-29.3-17.4-41.5c-13.5-17.6-31.3-30.2-50.4-41.1c-15.4-8.7-32.1-14.3-49-19
					c-26.7-7.4-54-12.1-81.5-14.1c-14.7-1.1-29.6-0.2-44.2,2.3c-18.5,3.3-36,9.8-52.7,18.3C318,27.7,305,34.6,291.4,40.2
					c-25.8,10.9-54.3,13.4-81.6,7.2c-20.5-4.7-41-10.2-58.2-12.7c-12.2-2.2-24.7-3.4-37.2-3.6c-17.9-0.2-35.3,2.4-52.1,9.1
					c-5.7,2.3-10.4,6.4-15.8,9.1c-6.1,2.9-10.6,7.8-15.6,12c-3.5,2.9-6.1,6.9-8.7,10.7C15,82.1,11.5,93.4,10.1,105.5
					c-0.8,6.3-0.5,12.6-0.7,18.8c-0.1,6.1,0.2,12.2,1.1,18.3c3.1,22.3,12.4,42.2,25.4,60.4c11.1,15.4,24.7,28.1,40,39.2
					c27.6,20.3,57.9,34.4,91.7,40.8c24.2,4.6,48.3,3.4,72.4-0.5c27.8-4.6,54.5-13.4,80.8-23.3c16.3-6.1,32.3-12.7,49.1-17.5
					c14.8-4.2,29.8-6,45-2.4c12.2,2.9,24.3,6.7,36.2,10.8c20.8,7.3,39.7,19.1,60.8,25.9c8.3,2.7,16.6,5.3,25.1,6.7
					c9.1,1.4,17.9,0.5,26-4.3c2.3-1.3,3.7-3.6,5.7-5c11.5-8,20-18.5,26.7-30.8c12-22.3,20.6-46.2,27.7-70.5
					C628.4,153.9,630.2,135.2,626.3,116.1z M77.3,46.1c-7.6,2.7-14.8,6.1-21.8,10.1C57.6,52.9,70.2,47.2,77.3,46.1z M353.5,243.7
					c-10.3,3.7-20.5,7.5-30.6,11.8c-6.6,2.9-13.7,4.9-20.5,7.2c-14.6,4.9-29.3,9.6-44.3,13.1c-0.9,0.2-1.7,0.2-2.6,0.3
					c0,0,0,0,0,0.1c0,0-0.1,0-0.2,0c-2.7,1.1-5.5,1.6-8.5,1.6c2.8-0.7,5.4-2,8.5-1.6h0.1c0,0,0,0,0.1,0c0.3-0.8,1.2-0.7,1.7-0.9
					c27.7-7.3,54.9-16.3,81.4-27.1c7.6-3,15.4-5.5,23.3-7.4C359.2,241.8,356.3,242.7,353.5,243.7z M618.9,149.8
					c-1.7,10.9-4.8,21.6-8,32.1c-6.5,20.6-13.8,41-23.8,60.2c-4,7.5-8.9,14.3-14.6,20.6c-1.8,2-3.8,3.7-6,5.2
					c-1.8,1.3-4.4,1.1-5.9-0.7c-0.8-0.8-4.8,0-5.9,1.3c-2,2.5-4.9,2.7-7.4,2.9c-4.8,0.2-9.6,1.7-14.5,0.2c-2.9-0.9-6.1-0.9-9.1-1.7
					c-3.6-1-7.3-1.5-10.7-2.8c-6.3-2.4-12.8-4.6-18.9-7.5c-19.9-9.4-39.6-19.6-60.9-25.7c-10.1-2.8-19.9-6.3-30.4-7.7
					c-13.1-1.7-25.9,0.1-38.5,3.6c-15.7,4.2-30.9,10.2-46.1,16.2c-21.1,8.3-42.8,15.2-64.8,20.6c-26.7,6.4-53.5,9.4-80.9,5.5
					c-25.2-3.6-49.6-11.9-71.7-24.6c-18.7-10.6-36.3-22.9-50.8-38.9c-17.4-19.3-28.7-41.6-31.1-68c-1.3-14.4-0.4-28.7,4.2-42.5
					C29,81.2,40.4,68.8,55.3,59.5c19.2-11.9,40.4-16,62.7-16.2c14.3-0.1,28.4,1.7,45,4.6c16,2.1,34.2,6.4,52.4,10.3
					c29.4,6.2,57.8,2.9,85.3-8.8c13.7-5.7,26.9-12.5,40-19.3c28.9-15,59.6-21.7,92.1-19.5c38.7,2.6,76.4,9.9,112.5,24.3
					c20.8,8.5,39.3,21.4,54.4,38c6.8,7.5,11.2,16.4,14.4,26C619.9,115.3,621.4,132.7,618.9,149.8z"/>
				<path id="Path" class="st2" d="M618.2,149.3c-1.7,10.9-4.8,21.5-8,32c-6.5,20.5-13.8,40.9-23.9,60c-4,7.5-8.9,14.3-14.6,20.5
					c-1.8,1.9-3.8,3.7-6,5.2c-1.8,1.3-4.4,1.1-5.9-0.6c-0.8-0.8-4.8,0-5.9,1.3c-2,2.5-4.9,2.7-7.4,2.9c-4.8,0.2-9.6,1.7-14.5,0.2
					c-2.9-0.9-6.1-0.9-9.1-1.7c-3.6-1-7.3-1.5-10.7-2.8c-6.3-2.4-12.8-4.5-18.9-7.5c-19.9-9.4-39.6-19.6-60.9-25.6
					c-10.1-2.8-19.9-6.3-30.5-7.7c-13.1-1.7-25.9,0.1-38.5,3.6c-15.7,4.2-30.9,10.2-46.1,16.1c-21.1,8.3-42.8,15.1-64.8,20.5
					c-26.7,6.4-53.6,9.4-81,5.5c-25.3-3.6-49.7-11.9-71.8-24.6c-18.8-10.6-36.3-22.8-50.8-38.8c-17.5-19.3-28.7-41.5-31.1-67.8
					c-1.3-14.4-0.4-28.7,4.2-42.4c5.9-16.9,17.3-29.2,32.2-38.5C73.4,47.2,94.6,43.1,117,43c14.3-0.1,28.4,1.7,45,4.5
					c16,2.1,34.3,6.4,52.5,10.3c29.4,6.2,57.8,2.9,85.3-8.8c13.7-5.7,26.9-12.4,40-19.3c28.9-14.9,59.6-21.6,92.2-19.5
					c38.7,2.6,76.4,9.8,112.5,24.2c20.8,8.4,39.4,21.3,54.4,38c6.8,7.5,11.2,16.3,14.4,26C619.2,114.8,620.7,132.2,618.2,149.3z"/>
			</g>
			<g id="arrow" transform="translate(0.000000, 122.000000)">
				<path id="Shape_1_" class="st3" d="M66.9,40.7c-0.1-0.5-0.2-0.8-0.3-1.3L65.8,40c-1.8-1-3.5-2-5.4-3c-2.5-1.3-5-2.4-7.3-3.9
					c-2-1.3-4.5-2.1-6.2-3.8c-1.6-1.6-4.1-1.4-5.3-3.4c-2.4-0.3-3.6-2.6-5.6-3.6c-0.6-0.3-1-0.8-1.8-0.9c-0.8,0-0.8-0.2-1.7-2
					c-0.2,0-0.6-0.1-0.9-0.1c-0.2,0-0.6,0.1-0.7,0c-1.1-2.3-4.1-1.7-5.4-3.7c-0.1-0.2-0.2-0.5-0.3-0.6c-3.8-0.5-6-3.8-9.3-5.1
					c-1.2-0.5-1.7-1.8-2.9-2.3c-0.5-0.2-1-0.5-1.5-0.8C11.4,6.2,11.2,5.6,11,5c-0.4-0.6-0.9-1.2-1.5-1.8c1.9-0.9,3.7-0.2,5.3-1.1
					l-4-0.2L10.6,1c4.5-1.5,4.6-1.6,9.9,0.6c3.8,1.5,7.8,2.6,11,5.3c3.1,0.7,5.5,2.7,8.3,4.1c3.8,1.9,7.3,4.1,11,6.1
					c4.7,2.5,9.4,4.8,14.1,7.2c4.4,2.2,9,4.1,13.6,5.9c3,1.2,6.1,2.6,9.1,3.8c3.1,1.2,6.1,2.4,9.2,3.6c2.3,0.9,4.5,2,6.8,2.4
					c2.5,0.5,4.3,2.2,6.8,2.7c1.5,0.3,2.9,1.3,4.6,1c0.2,0,0.5-0.1,0.7,0c2.6,1.9,5.8,2,8.8,3s6.1,1.9,9.2,2.7
					c1.7,0.5,3.5,0.7,5.1,1.4c2,0.8,4.1,0.7,6.2,1.4c2.5,0.8,5.1,1.5,7.7,2c2.5,0.5,5,1.1,7.5,1.7c4.9,1.2,9.9,1.8,14.6,3.5
					c1.3,0.4,2.6,0.2,4,0.7c1.9,0.7,4.3,0.1,6,1c1.9,1,4-0.3,5.5,1.3c3.7-0.1,7.1,1.4,10.8,1.5c1.1,0,2.2,0.5,3.3,0.7
					c1.2,0.3,2.4,0.5,3.6,0.7c1.1,0.2,2.4-0.4,3.3,0.7c1.9-0.3,3.6,0.5,5.4,0.6c2.3,0.1,4.5,1.3,6.8,0.8c1.3,1.5,3.4,0,4.8,1.4
					c0.2,0.2,0.9,0.1,1.4,0.1c1.4,0,2.7,0,4,0.6c1.2,0.6,2.6-0.3,4,0.7c0.8,0.6,2.3,0.1,3.4,0.1l1.3,1.3c1.9-1.3,3.6-0.4,5.1,0.8
					c1-1.2,2.6-1,3.5-0.5c1.2,0.7,2.2,0.5,3.4,0.5c3.2,0.1,6.4,1.1,9.7,0.8c0.8-0.1,1.8,0.8,2.7,1.2c0.5-0.2,1-0.4,1.4-0.5
					c1.5-0.3,2.8,0.4,4.4,0.1c1.3-0.3,2.9,0.2,4.2,0.8c0.7,0.3,1-0.2,1.3-0.1c1.9,0.2,3.9-0.8,5.8,0.6c0.5,0.3,1.4,0,2.1,0
					c5.1,0,10.2,0,15.3,0c1.2,0,2.4-0.1,3.4,0.3c1.1,0.4,1.7-0.9,2.8-0.4c0.7,0.3,1.5,0.4,2.4,0.6c0.9-0.2,1.8-0.4,2.7-0.5
					c3.8-0.1,7.6-0.2,11.4,0c4.7,0.3,9.3-0.7,14-0.9c3.4-0.2,6.7-1.5,10.2-2.4l2.7,1l0.7-0.6l2.1,2.5l-5.7,1.5l1.2,1.7h3.7l1.4,1.4
					l-2.6,1.9l1.7,0.6c0.4,2-0.9,3.2-2,4.4c0.2,0.3,0.4,0.5,0.5,0.6l-2.7,2.7c-0.9-0.2-2.1-1.5-3.5-0.4c0.2,0.3,0.4,0.5,0.9,1
					l-4.3-0.7l-0.1,0.5l2.2,0.5l-2.5,1.3c-0.2-0.4-0.4-0.8-0.7-1.5l-2.5-0.1c0.3,0.7,0.5,1.2,0.9,2.2c-0.9,0-1.4,0-2,0
					c-4-0.3-7.8,1-11.8,0.8c-4-0.3-8.1,0.1-12.1-0.1c-0.9,0-1.4,1.3-2.4,0.3c-0.3-0.3-1.6,0.4-1.9,0.1c-1.1-1.1-1.6,0.6-2.5,0.5
					c-1.6-0.1-3-0.9-4.7-0.9c-5.1,0.2-10.2,0.1-15.3,0c-1.9,0-3.8-0.5-5.8-0.7c-2-0.1-4,0-5.9-0.2c2.9-0.8,9.8-0.7,12.9-0.3
					c-0.5-0.2-1.1-0.3-1.6-0.5L287,91c-2.1,0-4.3-0.1-6.4,0c-3,0.2-5.9-1.3-9-0.7c-1.1-1-2.6-0.3-3.6-0.8c-1.5-0.9-2.8,0.8-4.4-0.2
					c-1.2-0.7-2.9-0.4-4.7-0.6l-1-0.8c0.1-0.2,0.1-0.3,0.2-0.5l10.5,1.1l0.8-0.7l-1.1-1.1c-0.3,0.3-0.7,0.5-1.4,1.1l-0.6-2.4
					l-0.7,0.6l-1.1,0.5l-0.2-1.2l-4.5-1.1c-0.3,0.7-0.5,1.1-0.8,1.7l-3.6-1.3l-1.3,0.8l-2-2.6l-0.8,0.8l-1.9-0.9l1.1-1l0.9,0.8
					l2.1-1l0.5,1.4l3.1-1.1c1.4,1.1,3.2,0.2,5,0.6l1.4,1.3c1-1.3,2.4-0.4,3.8-0.8c0-0.3,0-0.7,0.1-1.5c-0.5,0.4-0.7,0.6-1.2,0.9
					l-1.1-1.7l-1.5,1.6l-2.3-1.2c-1,1-2.1,0.4-3.2-0.1c-1-0.5-2.1-0.6-3.3-0.9l-1.1-2c-0.4,1-0.6,1.5-0.9,2.2
					c-1-0.2-2.1-0.3-3.3-0.5c-1.1-0.2-2.4,0-3.3-0.6c-1.2-0.8-1.9,1-3,0.1c-0.8-0.6-2.1-0.5-3.2-0.7c-0.5,0.7-0.9,1.3-1.6,2.3
					l3.3-0.3l0.7,0.6l-0.6,0.8l0.6,0.7c-0.1,0.1-0.3,0.4-0.4,0.4c-1-0.1-2.1-0.3-3.1-0.3c-1.1,0-2.5,0.5-3.3,0
					c-1.2-0.7-2.3-0.2-3.5-0.5l-1.6-1.5l-2.1,1.5c3.6,1.7,7.3,1.9,11.5,2.7c-1.6,0.5-3.2,0.6-4.8,0.3c-0.8-0.1-1.6-0.8-2.6-0.7
					c-0.8,0.1-1.9-0.6-2.3-0.2c-1.1,0.9-1.4-0.5-2.1-0.5c-0.9,0.1-1.9,0.1-2.8,0c-1.1-0.1-2.2-0.5-3.3-0.7c-1-0.1-2-0.3-2.9-0.6
					c-1.6-0.5-3.4-0.1-5.2,0.4l4.1,0.3c-3.3,1.5-5.9-0.5-8.6-0.2c-0.5-0.7-1-1.6-1.6-2.1c-0.3-0.3-1.1,0-2.4,0l2.1,1
					c-0.2,0.1-0.3,0.4-0.5,0.4c-1.5-0.1-2.9,0.3-4.4-0.6c-1.1-0.7-2.6,0.1-4-0.6c-1.7-0.8-3.8-0.5-5.7-0.9c-1.9-0.4-3.7-0.7-5.6-1.2
					c-2.7-0.7-5.5-1-8.2-1.7s-5.6-0.4-8.1-1.9c-1.3-0.7-2.8-0.3-4.3-0.9c-3.1-1.2-6.4-1.6-9.7-2.5c-1.7-0.4-3.4-1.2-5.2-1.3
					c-2,0-3.7-1.1-4.6-2.9c-0.3,0.5-0.5,1-0.7,1.4l-0.8-0.7l-0.5,0.4c-1.3-0.4-2.5-1.1-3.6-1.1c-1.5,0-2.5-1-4.5-1.4
					c-3.1,0.7-6.3-2.3-10.2-2.3c-0.1-0.6-0.2-1.3-0.4-2.6c-0.6,1-0.9,1.6-1,1.7c-2.9-0.5-5.6-1.5-8.1-3.1v-1
					c-0.4,0.3-0.9,0.5-1.4,0.7c-0.6,0.1-1.3,0.1-1.9,0l-1.2-1.4h-3.1c-0.2-0.5-0.3-0.9-0.5-1.5l-1.2,0.8l-2-1.9
					c-0.1-0.8-0.1-1.3-0.2-2.3l-1.8,2.7c-2.1-0.8-4.1-2.1-6.5-2.5c-2.1-0.4-3.8-2-6-2.7c-1.2-0.3-2.2-1.6-3.7-1.3
					c-0.7-1.2-2-1.3-3.2-1.8c-1.4-0.6-3.3-0.2-4.3-1.5s-3.1-0.6-3.7-2.2c-1.5-0.2-2.7-1.2-4-1.5c-1.4-0.3-2.8-1-3.8-2
					C68.4,40.8,67.7,40.9,66.9,40.7z M219.4,70.5c-1,0.2-1.9,0.6-2.4,0.3c-1.9-0.9-3.9-0.9-5.9-1.3c-2.4-0.5-5-0.3-7.3-0.9
					c-3.1-0.8-6.4-1.3-9.5-1.8c-3.2-0.5-6.4-1.5-9.7-1.7c-1.5-0.1-2.9-0.9-4.4-1.3c-0.2,0-0.4,0.2-0.7,0.3c0,0.3,0,0.6,0.1,1
					c1.9,0.3,4,0.2,5.7,0.9c1.5,0.7,3.2,0,4.3,0.7c1.4,0.8,2.9,0,3.9,0.8c1.2,1,2.6-0.1,3.6,0.7c1.3,1,2.9,0,4,0.6
					c1.7,0.8,3.7,0,5,0.8c1.7,1.1,3.8-0.4,5.2,1.3c1.9-0.4,3.6,0.5,5.4,0.7c2,0.2,4.2,0.1,6.1,0.8c1.6,0.6,3.4,0.1,4.7,0.8
					c1.2,0.6,2.4,0.1,3.3,0.6c1.2,0.7,2.4,0.5,3.7,0.7c1,0.2,2,0.4,3.1,0.6c1.9,0.4,3.7,1.2,5.7,0.8c0.5-0.1,1.2-0.2,1.4,0
					c1.1,1.4,2.7,0.2,3.9,1c1.4,0.9,3,0.3,4.4,0.4c0.5,0.1,1.1-0.2,1.4,0c1,0.9,2.3,0.3,3.3,0.8c1.3,0.6,2.3-0.3,3.4-0.1
					c1.7,0.3,3.4,0.5,5,0.7c1.4,0.2,2.9,0.3,4.5,0.5l0.4-0.4l2.1,1.1c1.5-0.7,2.8-0.8,4.1-0.1c1.4,0.8,2.6-0.1,3.9-0.5
					c1.4-0.4,2.5,1.7,4.2,0.3c0.9-0.7,2.6-0.3,4.1-0.4c-2.1-1.2-4.5-1.6-6.9-1.2c-2.3,0.4-4.5-1.3-6.8-0.3c-1.3-1-2.6-0.3-3.8,0.4
					l-1.9-1.7l-2.2,0.9c-1-0.7-2.1-1.2-3.2,0l-1.4-1.4c-2.7-0.1-5.5,0.3-8.2-0.7c-1.2-0.4-2.4-0.7-3.6-0.7c-2.3-0.2-4.5-0.2-6.9-0.6
					c-2.5-0.4-4.9-1.4-7.5-0.9c-0.4,0.1-1-0.5-1.5-0.8c-0.1,0.4-0.4,0.8-0.7,0.8c-1.9-0.1-3.8-0.4-5.7-0.6c-0.3,0-0.5-0.4-0.8-0.7
					c-0.2,0.2-0.5,0.5-0.9,0.8l-2.8-1.4c-0.1,0.1-0.2,0.2-0.2,0.2c-1.5,0.3-3-0.8-4.6-0.4C219.7,71,219.3,70.5,219.4,70.5z"/>
				<path id="Path_1_" class="st3" d="M385.2,66.4c-0.1,0.3-0.6,0.8-0.5,1.1c1.3,2.8,0.5,5.6-0.1,8.3c-0.5,2.3-0.8,4.6-2.2,6.6
					c-2.5,3.5-4.1,7.9-8.3,10c-0.1,2.3-3.4,1.9-3.5,4.2c-2.4,1.1-3.8,3.4-5.8,4.9c-1.3,1-2.5,2-3.7,3c-0.5,0.4-1.2,0.5-2.1,0.8
					l-1.1,2.3l-3.3,2.1c0,0.6-0.1,1.4-0.1,2.2l-1.2,0.4c-0.7,1.4,0.8,1,1.2,1.5c-0.9,1.9-2.4,3-4.2,4.1l-3.6-2.7v-4.8
					c-0.5-0.5-1-1-1.5-1.6c0.3-2.3-0.4-4.6,0.7-6.8c0.5-1.1,0.7-2.4,1.7-3.2c0.6-0.5,0.4-1.8,1.7-1.8c0.3,0,0.5-1.4,0.8-2.1
					c0.5-1.4,1.8-2.3,2.8-3.4c2.3-2.6,4.7-5,7.3-7.3c2.6-2.1,5-4.7,8.1-6.3c0.9-0.5,1.6-1.4,2.4-2c0.8-0.6,1.6-1.3,2.6-2.1l-4-1.7
					l-0.5,1.3c-3.1-0.3-5.8-2.1-9.1-2.7v-1.6l-7.1-2.2c-1-0.3-1.8,1.1-3.1,0l1.5-0.7c-1.7,0.3-3.2-2.6-5-0.1
					c-2.3-2.6-6.4-1.4-8.3-4.5l-0.8,0.7c-1.8-0.7-3.6-1.6-5.5-2c-2-0.4-2.6-2.5-5-3c-2.7,0.4-5.3-0.4-7.3-2.2c-0.3-1-0.6-2-1-3
					l0.6-1l-1.3-1.1l2.9-1.4l-1.4-1.4l2-1.2c1.4,1.7,3.7,0.5,5.7,1.4c2.8,1.3,6,1.5,9.1,2.3c3.5,1,7,2.2,10.4,3.2
					c3.7,1.1,7.4,2.3,11.2,3.2c3.1,0.7,6,2.2,9.2,2.8c1.1,1.3,3,0.1,4.1,1.4c2.7-0.3,4.9,1.6,7.5,1.7c0.5,0,1,0.4,1.6,0.5
					C382.1,62.9,384.3,63.5,385.2,66.4z"/>
			</g>
		</g>
	</g>
</g>
</svg>
