<?xml version="1.0" encoding="UTF-8"?>
<svg width="1024px" height="294px" viewBox="0 0 1024 294" version="1.1" xmlns="http://www.w3.org/2000/svg" xmlns:xlink="http://www.w3.org/1999/xlink">
    <title>Group 2</title>
    <g id="Gallery" stroke="none" stroke-width="1" fill="none" fill-rule="evenodd">
        <g id="Desktop" transform="translate(0.000000, -90.000000)">
            <g id="Group-2" transform="translate(0.000000, 90.000000)">
                <g id="Group">
                    <rect id="blue-bg" fill="#1B4965" x="0" y="0" width="1024" height="294"></rect>
                    <g id="yellow-scribbles" transform="translate(10.000000, 19.000000)" fill="#F7DBA7" fill-rule="nonzero">
                        <path d="M270.693005,205.911789 L274,204.241217 C267.505608,218.959146 264.464593,233.908577 258.767517,247.960153 C257.296219,251.589111 255.147201,254.225737 251.043513,254.725658 C250.438674,254.799488 249.479402,255.163635 249.281942,254.913362 C245.776241,250.49667 240.7818,252.253586 236.364168,251.654808 C235.739741,251.582492 235.131726,251.405914 234.565223,251.132363 C231.646297,249.626345 227.571262,241.128952 228.036571,237.760903 C230.047303,223.208781 234.610695,209.46504 240.764359,196.181176 C241.913616,193.700971 243.776097,192.13301 245.747587,190.627618 C251.076527,186.553174 252.207097,187.020559 253.429856,193.415659 C253.511457,193.840498 253.913852,194.204019 254.190422,194.631986 C256.04356,194.552524 256.036085,192.697376 256.95549,191.776371 C257.858701,190.87226 259.059659,190.227807 259.796553,191.26644 C262.629519,195.262048 268.124774,195.771354 270.744083,200.221207 C272.035985,202.417353 270.426402,203.793854 270.693005,205.911789 Z" id="Path"></path>
                        <path d="M34.7518054,28.2816079 C37.2471315,27.4837054 37.2383117,25.0135239 38.4893669,23.5226171 C39.2410856,22.6272609 40.2974267,20.7255595 40.9901206,21.4490181 C43.4325278,23.9997343 48.2589959,23.3960626 49.3275491,26.182292 C50.3961023,28.9685213 55.8623454,29.4713556 53.4240088,33.9142984 C53.3941572,33.9697929 57.1636057,32.6013801 55.6350658,35.9540593 C54.8576453,37.6561501 54.2423028,39.4273536 53.7971544,41.2443083 C52.699428,45.7691394 53.902992,50.3758587 53.8921369,54.9149018 C53.8792464,60.6673793 49.8139952,65.4466729 51.1274676,71.3602197 C51.5603164,73.3099712 48.0337517,72.7516425 47.0350785,74.5410014 C45.27451,77.6980964 44.3138298,75.3199545 43.1109442,73.8642393 C41.9575852,72.4707863 40.5640562,73.3180924 39.3869516,73.9644001 C37.4438809,75.0323306 35.6453194,76.3723195 33.6649342,77.354978 C29.6023968,79.3710522 26.0249486,82.7839632 20.6272286,79.8718561 C18.3822492,78.660452 14.9852678,79.4157185 12.1242591,79.5409195 C8.89688927,79.681686 6.56099811,78.7903903 4.96868427,75.7158603 C3.26239143,72.4220594 -1.16311483,70.6645083 0.287403704,65.6151866 C2.58190963,57.6239803 6.21973954,50.1667392 12.9397517,45.5343029 C19.5634245,40.9681893 22.7182005,34.8346948 25.2589825,27.8748739 C26.3329633,24.9316357 27.7142803,22.2306783 30.371755,20.3377749 C31.525114,19.515509 32.6872928,18.5978196 34.1127088,19.1872794 C36.0001469,19.9682628 35.2660678,21.8266514 35.3278064,23.2404073 C35.3956511,24.8632827 34.1011752,26.4015629 34.7518054,28.2816079 Z" id="Path"></path>
                        <path d="M175.324601,116.500396 C177.402163,112.283045 180.459328,114.366542 182.622511,113.601124 C185.62994,112.537345 186.935657,113.734569 189.209644,115.090416 C191.292872,116.332332 194.25938,115.991796 196.560437,117.797074 C199.954419,120.461559 201.54218,123.11975 200.83455,127.868362 C199.644673,135.862446 196.59947,143.380662 195.5588,151.472942 C195.160916,154.566716 191.297909,159.298962 187.176151,161.633612 C185.165951,162.772297 184.672373,161.004157 184.124022,159.774201 C183.344622,158.023685 181.875218,156.824572 180.479474,158.163424 C177.17615,161.331473 173.703473,159.083688 170.966756,158.163424 C167.761644,157.088314 165.263532,154.971455 161.282797,154.79332 C158.512713,154.667428 155.784181,150.732073 153.267812,148.263348 C149.014475,144.090059 149.490426,139.127432 151.442076,134.1006 C152.882519,130.386813 154.443209,126.724012 155.995715,123.056804 C156.299795,122.337966 156.692013,121.255303 157.248548,121.105492 C162.654618,119.660892 165.482621,115.225119 169.185719,111.62967 C172.448121,108.472951 174.288967,109.801102 175.324601,116.500396 Z" id="Path"></path>
                        <path d="M107.432019,210.62432 C105.961254,209.678097 108.099567,208.559026 106.664575,207.656527 C104.524537,208.949514 102.97835,211.048656 102.365001,213.493734 C101.252646,218.810348 95.9196884,217.877788 93.2818959,220.72534 C92.6615962,221.395553 92.1135185,220.699379 91.709885,220.125496 C90.2080712,217.989832 88.0360097,217.877788 85.7829516,218.235782 C83.9699755,218.524773 82.4080892,218.548685 81.552224,216.459478 C81.0844681,215.315812 80.1948544,214.9667 79.0953242,215.781067 C75.7690598,218.240564 74.512261,215.507789 72.0756104,213.699375 C62.39448,206.51286 64.6873615,197.512466 67.1307619,188.167742 C68.3079139,183.666178 69.2231766,179.081265 70.0331436,174.497035 C70.808687,170.104782 73.0219218,167.255181 77.432867,166.348583 C77.9426721,166.289348 78.4460511,166.183009 78.9367057,166.030898 C87.0120765,162.70716 87.0100516,162.703061 88.4349185,171.856491 C91.8057311,164.062617 95.412784,167.124691 99.9404995,169.863615 C104.269773,172.481613 109.029004,174.099416 112.102829,178.626941 C113.459523,180.625966 114.309314,182.342832 113.894206,184.744258 C112.999867,189.916718 113.556719,195.382268 110.59359,200.139346 C110.027963,201.047994 110.230455,201.965523 110.979674,203.374268 C112.737303,206.682976 108.916284,208.273451 107.432019,210.62432 Z" id="Path"></path>
                        <path d="M935.398854,111.680982 C939.179506,109.02264 942.95333,107.601244 946.10577,112.525688 C946.587711,113.10709 947.266595,113.494364 948.015443,113.615074 C961.55083,116.195118 967.35572,123.368348 966.983194,136.490661 C966.790481,143.325858 964.527249,149.981122 966.495343,157.161881 C968.222926,163.464055 964.512075,165.48849 957.8984,162.792506 C956.720123,162.312182 955.809671,162.597515 954.666295,163.076333 C951.683806,164.32683 948.704352,164.62722 946.158879,161.919943 C945.510941,161.231078 944.413846,160.609971 943.556504,161.212257 C937.790308,165.263385 932.878419,160.760542 927.666081,159.689978 C924.166152,158.973257 921.174558,158.98455 918.106335,154.899543 C914.616269,150.251398 914.655722,146.687369 915.417466,142.083643 C916.919712,133.009446 919.72087,124.295116 922.933248,115.701996 C923.800454,113.38244 924.771602,111.132148 926.768527,109.417891 C931.109107,105.688985 933.292675,106.145217 935.398854,111.680982 Z" id="Path"></path>
                        <path d="M838.418954,50.0570091 C837.605051,50.6370364 837.294779,50.834946 837.00699,51.0678703 C835.433145,52.3504765 835.396421,56.4266525 832.491553,54.8738235 C829.826508,53.4481134 829.464524,50.212292 830.626921,47.153828 C834.446618,37.1015443 838.252326,27.0439323 842.044044,16.9809919 C843.467999,13.2047251 844.710588,9.34929449 846.309914,5.65143032 C847.447579,3.02151664 848.970462,-0.39699056 852.087425,0.0376492998 C855.794205,0.553736559 852.856361,4.64665867 854.212116,6.81605201 C856.363787,6.56942624 856.634339,4.69689725 857.359807,3.20496358 C858.70432,0.44945344 860.242941,-1.29062838 862.276199,2.66299584 C862.620197,3.33284361 862.812056,4.41982386 863.62521,3.69897631 C868.628539,-0.723541347 870.744986,5.40404336 873.377054,7.07257326 C876.398837,8.9900125 876.54573,13.1537253 875.149504,17.3052591 C871.355038,28.5906717 868.130904,40.0755162 864.759877,51.5047937 C863.797583,54.7695404 862.347397,57.2898426 858.965878,58.6812991 C857.321585,59.3564753 856.228137,61.1110197 855.443463,58.0403766 C855.345285,57.654453 854.363505,57.0820376 854.209118,57.1931714 C851.130377,59.4158481 847.758601,58.6455232 844.351601,58.8358209 C842.454743,58.9416264 840.640324,61.0356618 838.302789,59.3397291 C835.651984,57.4162003 837.530106,55.1531805 837.703229,53.0256526 C837.870977,52.0198631 838.110176,51.0277235 838.418954,50.0570091 L838.418954,50.0570091 Z" id="Path"></path>
                        <path d="M253.722797,87.3773375 C254.224013,85.4123315 253.902955,83.3318101 252.831471,81.6013519 C250.817599,77.896339 250.446939,73.5389078 251.806893,69.5565361 C253.166848,65.5741644 256.137048,62.3193265 260.017124,60.55951 C262.386861,59.4983999 264.251308,60.0988439 266.851139,61.0960769 C271.270838,62.7582747 275.366368,65.1562623 278.9582,68.1849232 C283.206144,71.7545214 287.070344,75.3654518 285.432933,81.6900283 C284.914648,83.6927607 287.965493,87.4111548 286.682013,87.1075511 C280.773724,85.7097716 287.641374,91.708951 284.046254,90.9604626 C280.207281,90.1616241 278.338247,93.6575759 277.589104,95.6302485 C275.389835,101.422016 270.785666,101.38895 266.082121,101.607635 C264.733664,101.67076 261.607905,103.309769 263.043507,99.3832114 C263.091666,99.2509484 262.986939,99.0653292 262.953304,98.9045095 C259.306203,100.089616 258.971382,97.1400007 257.015203,95.4168242 C253.897852,92.6761242 254.085902,90.0924866 253.722797,87.3773375 Z" id="Path"></path>
                        <path d="M786.722797,113.377338 C787.224013,111.412332 786.902955,109.33181 785.831471,107.601352 C783.817599,103.896339 783.446939,99.5389078 784.806893,95.5565361 C786.166848,91.5741644 789.137048,88.3193265 793.017124,86.55951 C795.386861,85.4983999 797.251308,86.0988439 799.851139,87.0960769 C804.270838,88.7582747 808.366368,91.1562623 811.9582,94.1849232 C816.206144,97.7545214 820.070344,101.365452 818.432933,107.690028 C817.914648,109.692761 820.965493,113.411155 819.682013,113.107551 C813.773724,111.709772 820.641374,117.708951 817.046254,116.960463 C813.207281,116.161624 811.338247,119.657576 810.589104,121.630249 C808.389835,127.422016 803.785666,127.38895 799.082121,127.607635 C797.733664,127.67076 794.607905,129.309769 796.043507,125.383211 C796.091666,125.250948 795.986939,125.065329 795.953304,124.904509 C792.306203,126.089616 791.971382,123.140001 790.015203,121.416824 C786.897852,118.676124 787.085902,116.092487 786.722797,113.377338 Z" id="Path"></path>
                    </g>
                </g>
                <g id="white-fill-scribble" transform="translate(512.500000, 148.000000) rotate(176.000000) translate(-512.500000, -148.000000) translate(344.000000, 51.000000)" fill="#FFFFFF" fill-rule="nonzero">
                    <path d="M333.307108,114.528819 C331.00312,109.786236 327.788252,105.318018 323.769668,101.241749 C318.143651,95.3625143 312.35689,89.6008645 307.052359,83.5648503 C302.658707,78.5479035 298.425798,73.4525669 293.174848,68.866764 C284.869774,61.5765132 274.957267,55.6972787 263.919556,50.7587216 C258.82935,48.4854176 253.685562,46.2513085 248.80968,43.7036402 C239.486565,38.843473 230.806423,33.3953823 221.804795,28.2216559 C213.714046,23.5182683 204.819579,19.5595837 195.335721,16.5415767 C187.244972,13.9547135 178.993479,11.6814095 170.634824,9.52569012 C160.454411,6.89963203 150.220417,4.43035353 139.504193,3.17611683 C135.432028,2.70577807 131.359862,2.07865972 127.287697,1.49073626 C123.751343,0.981202602 120.214989,0.902812808 116.678635,0.51086384 C114.588971,0.314889355 112.499308,0.197304664 110.356063,0.158109768 C108.266399,0.0797199737 106.176735,-0.155449408 104.087072,0.393279149 C103.390517,0.51086384 102.693963,0.589253633 101.997408,0.550058736 C98.3003106,0.550058736 94.6567943,1.17717709 91.388346,2.43141379 C89.8344934,3.01933724 87.3697619,2.90175255 86.9411129,4.93988719 C86.8339507,3.92081987 86.4053017,3.68565049 85.2800981,4.11679435 C84.0477324,4.50874332 82.8153666,4.86149739 81.5294197,5.13586167 C80.5649595,5.37103105 79.6004993,5.64539533 80.0291483,6.82124224 C79.6004993,5.68459023 78.9039447,5.84136982 77.9930657,6.23331879 C75.7426586,7.09560652 73.4922515,7.87950445 71.2418444,8.78098708 C67.7054904,10.1920034 64.3298798,11.7597992 61.1150125,13.5627645 L61.1150125,13.5627645 C58.8646054,14.503442 56.9892662,15.7968736 54.9531836,16.9335256 C49.0592603,20.1475072 44.1297971,24.0669969 39.4146584,28.1432661 C30.7880979,35.6686863 23.8225522,44.0171994 17.553561,52.6792716 C13.6957203,58.1665572 10.4272719,63.8498172 7.8553781,69.6898568 C4.69409195,76.5881587 3.03307719,83.7216299 2.01503589,90.933491 C1.15773795,97.0870898 0.729088984,103.240689 0.300440015,109.433482 C-0.556857923,121.89746 2.49726598,133.695123 10.2129474,144.787279 C15.9997085,153.096597 23.286741,160.739602 31.0024224,168.147438 C40.6470242,177.436628 53.2921688,183.629422 68.5627883,187.000183 C78.2073902,189.116708 88.0663164,190.723698 98.032405,191.86035 C106.605384,192.879418 115.231945,193.428146 123.912086,192.722638 C129.430942,192.252299 134.949797,191.507596 140.361491,190.488529 C150.916972,188.528784 160.88306,185.432387 170.741986,182.100821 C182.583414,178.142137 194.31768,174.026672 206.427013,170.499132 C212.106612,168.852946 218.054116,167.559514 224.001621,166.344473 C235.789467,163.875194 248.113125,163.248076 260.27604,164.541507 C268.9026,165.403795 277.636323,165.28621 286.209302,164.188753 C291.460252,163.52244 296.550459,162.346593 301.587084,161.092356 C308.981279,159.250196 315.7325,156.624138 321.358518,152.704648 C324.144736,150.744904 326.930954,148.785159 328.913456,146.198296 C330.360146,144.356135 331.646093,142.435585 332.771297,140.515036 C335.289609,136.242792 335.825421,131.735379 336.093326,127.188771 C336.468394,122.838137 335.236028,118.644283 333.307108,114.528819 Z M60.4184579,14.503442 C60.9542691,14.2290778 61.2221747,14.0331033 61.1685936,13.6019594 C61.7044048,13.9939084 62.0258916,13.6411543 62.5617028,13.4059849 C64.3834609,12.5436972 66.2588001,11.7206043 68.1341394,10.8975115 L68.402045,11.1718758 C67.0089358,11.8773839 65.6158267,12.5828921 64.2227175,13.2492053 C61.8651482,14.3858573 59.6683222,15.6792889 57.4179151,16.9727205 C56.9892662,17.2470848 56.6141983,17.6782287 55.8640626,17.4822542 C57.0428473,16.2672124 58.7574432,15.3657298 60.4184579,14.503442 Z M49.1664225,21.5585235 C50.8274372,20.3042868 52.6491954,19.2068297 54.3102101,17.952593 C54.685278,17.6390338 55.2210892,17.4822542 55.7569004,17.5214491 C54.8996025,19.0500501 52.8099387,19.7163633 51.3096673,20.7746255 C49.1664225,22.3424214 46.9695965,23.8318275 44.9335139,25.4780132 C44.6120272,25.7915723 44.1297971,25.9875468 43.5939859,26.1051315 C44.987095,24.3021663 47.2375021,23.0479295 49.1664225,21.5585235 Z M43.4868237,26.2227162 C43.2724992,27.7121223 41.3435788,28.2216559 40.2183753,29.1623335 C40.8613487,27.9472917 42.0401334,26.9282243 43.4868237,26.2227162 Z M308.820536,153.91969 C313.32135,151.803166 317.393515,149.216303 320.876288,146.23749 C320.447639,148.197235 312.464052,153.174987 308.820536,153.91969 Z M328.752713,125.34661 C328.377645,133.146395 325.698589,140.397451 318.518718,146.433465 C313.80358,150.39215 307.802494,153.096597 301.265597,155.134732 C288.138223,159.211001 274.582199,161.366721 260.222459,160.386848 C254.54286,159.994899 248.863261,159.367781 243.130081,159.485366 C232.360276,159.642145 221.965538,161.327526 211.785125,163.796804 C195.817951,167.677099 180.708075,173.0468 165.544618,178.298916 C153.863933,182.335991 141.968924,185.863531 129.216617,187.823276 C119.411272,189.391072 109.28444,189.665436 99.3183519,188.607174 C89.0843577,187.548912 78.9575258,185.941921 69.0450184,183.786202 C55.1139269,180.729 44.1297971,174.732181 35.6103988,166.187693 C27.8411363,158.387909 20.2326171,150.548929 14.5530182,141.808467 C12.1418678,138.084952 10.5880153,134.126267 9.30206837,130.089193 C6.89091791,122.681357 6.67659343,115.195132 6.99808016,107.630517 C7.21240464,102.574375 7.74821585,97.5574285 8.17686482,92.5012868 C8.49835155,88.8953563 9.40923061,85.3286207 10.1593663,81.7618851 C10.7487586,78.9006576 12.0882867,76.1570148 12.7848412,73.3349823 C13.3206525,70.9440935 14.9816672,68.9059589 15.8925463,66.6326549 C17.3392365,63.0659193 19.750387,59.7735479 21.7864696,56.4027868 C24.19762,52.4049073 27.2517439,48.6421972 30.1987056,44.8402922 C32.6634372,41.6655056 35.7711422,38.7650832 38.5573605,35.7470761 C39.3074962,34.9239833 39.9504697,34.0225007 40.7006054,33.2386027 C41.3971599,32.4938997 42.4687824,31.8275865 43.3260803,31.1220783 C45.6300685,29.1623335 47.9876378,27.2809784 50.2380449,25.2820387 C50.6131128,24.8900897 51.0953429,24.5373356 51.6311541,24.2237765 C52.1133842,23.9494122 52.7563576,23.7534377 52.8099387,23.2047091 C52.8635199,22.6559806 52.488452,21.6761082 53.9887234,22.499201 C54.5781157,21.6369133 56.2927116,21.4801337 56.6141983,20.6570408 C57.2035907,19.2068297 59.0253488,18.6189062 60.0433901,17.5214491 C60.0433901,17.5214491 60.0433901,17.5214491 60.0433901,17.5214491 C60.0433901,17.4822542 59.989809,17.4822542 59.989809,17.4822542 C59.132511,17.3646695 58.5431187,17.8742032 57.6322396,18.1877623 C57.8465641,16.9335256 59.2932544,16.8943307 60.0969712,16.3456022 C60.1505523,16.7375512 59.7219034,17.1295001 59.989809,17.4822542 C59.989809,17.4822542 60.0433901,17.4822542 60.0969712,17.4822542 C60.0969712,17.4822542 60.0969712,17.5214491 60.0433901,17.5214491 C62.5081217,16.8159409 64.4906231,15.5225093 66.5267057,14.3074675 C67.544747,13.6803492 68.8842751,13.5235696 69.9558975,13.0532308 C70.8667766,12.6612819 72.3670479,12.8572564 72.2598857,11.6422146 C73.0636025,11.7597992 73.4386704,11.1326809 74.1888061,11.093486 C75.6354963,11.0150962 76.8678621,10.4663676 78.0466468,9.99602889 C79.3861748,9.44730033 80.7257028,8.97696157 82.1723931,8.6242075 C84.315638,8.07547894 86.6732073,8.46742791 88.8700333,7.72272487 C90.0488179,7.3307759 91.6026704,7.44836059 92.727874,6.74285244 C93.4244286,6.27251368 94.1209831,6.74285244 94.7639566,6.74285244 C97.1215259,6.78204734 98.9968652,5.64539533 101.300853,5.60620043 C102.801125,5.56700554 104.301396,5.41022595 105.801668,5.72378513 C106.605384,5.88056471 107.569845,5.95895451 108.159237,5.48861574 C108.80221,4.97908208 108.748629,4.31276884 108.105656,3.60726069 C109.927414,5.72378513 112.713632,4.54793822 115.01762,4.8223025 C117.482352,5.09666678 120.000665,5.17505657 122.518977,5.13586167 C123.804924,5.09666678 125.090871,5.13586167 126.376818,5.33183616 C129.32378,5.95895451 132.538647,6.74285244 135.271284,6.62526775 C138.111084,6.50768306 139.986423,7.72272487 142.504736,7.87950445 C145.183792,8.03628404 147.809267,8.42823301 150.38116,9.05535136 C157.882517,10.8975115 165.491036,12.3869176 172.885231,14.4250522 C180.600913,16.5415767 188.370175,18.697296 196.032276,20.8922102 C205.087485,23.5182683 212.910329,27.7121223 220.518848,32.0627558 C227.430813,36.0214404 234.02129,40.2544893 241.093998,44.0563943 C248.595355,48.1326636 256.47178,51.7385941 264.401786,55.3445246 C276.939768,61.0277846 287.334506,68.3180355 295.15735,77.4896413 C302.712288,86.3868829 311.124524,94.8529806 319.268854,103.436663 C325.484264,110.060601 329.181362,117.272462 328.752713,125.34661 Z" id="Shape"></path>
                    <path d="M330.126637,125.676576 C329.749129,133.533811 327.052637,140.838277 319.826039,146.918751 C315.080213,150.906594 309.040071,153.630962 302.460631,155.684109 C289.247821,159.790403 275.603572,161.962001 261.150376,160.974911 C255.433813,160.580075 249.71725,159.948338 243.946757,160.066788 C233.10686,160.224723 222.644472,161.922517 212.397803,164.409984 C196.326711,168.31886 181.118497,173.728113 165.856353,179.018915 C154.099649,183.085725 142.127225,186.639249 129.291923,188.613429 C119.422763,190.192772 109.230024,190.469158 99.1990742,189.4031 C88.8984753,188.337043 78.7057361,186.718216 68.7287162,184.546618 C54.7069585,181.466898 43.6513418,175.425907 35.0764977,166.818483 C27.2566713,158.961248 19.5986344,151.064528 13.8820717,142.259686 C11.455229,138.508745 9.89126371,134.520901 8.59694762,130.454091 C6.17010494,122.991691 5.95438559,115.450324 6.27796462,107.82999 C6.49368397,102.736606 7.03298234,97.6827059 7.46442104,92.5893219 C7.78800006,88.956831 8.70480729,85.3638237 9.45982502,81.7708165 C10.0530532,78.8885139 11.4012992,76.1246622 12.102387,73.2818432 C12.6416854,70.8733438 14.3135104,68.8201968 15.2303176,66.5301482 C16.6864232,62.9371409 19.1132659,59.6205188 21.1625997,56.2249295 C23.5894424,52.1976027 26.6634431,48.4071774 29.6295842,44.5772686 C32.1103567,41.3790973 35.2382872,38.4573111 38.0426388,35.4170742 C38.7976565,34.5879187 39.4448145,33.6797959 40.1998323,32.890124 C40.9009201,32.1399357 41.9795169,31.4687145 42.8423943,30.7580098 C45.1613773,28.78383 47.5342901,26.8886174 49.7993433,24.8749539 C50.1768522,24.480118 50.6622207,24.1247656 51.2015191,23.8088968 C51.6868876,23.5325117 52.3340456,23.3350937 52.3879755,22.7823233 C52.4419053,22.229553 52.0643965,21.2424631 53.5744319,22.0716186 C54.1676601,21.2029795 55.8934149,21.0450451 56.2169939,20.2158895 C56.8102221,18.7549965 58.6438366,18.1627425 59.6685035,17.0572018 C62.149276,16.3464971 64.14468,15.0435384 66.1940138,13.8195469 C67.2186807,13.1878094 68.5669267,13.029875 69.6455234,12.5560718 C70.5623306,12.1612359 72.0723661,12.3586538 71.9645064,11.1346624 C72.773454,11.2531131 73.1509628,10.6213756 73.9059806,10.581892 C75.3620862,10.5029248 76.6024724,9.95015446 77.7889288,9.4763513 C79.1371748,8.92358095 80.4854207,8.4497778 81.9415263,8.09442543 C84.0987198,7.54165508 86.4716326,7.93649104 88.682756,7.18630271 C89.8692124,6.79146674 91.4331777,6.90991753 92.5657043,6.1992128 C93.2667921,5.72540964 93.96788,6.1992128 94.6150381,6.1992128 C96.9879509,6.23869639 98.8754952,5.09367209 101.194478,5.0541885 C102.704514,5.0147049 104.214549,4.85677052 105.724585,5.17263929 C106.533532,5.33057367 107.504269,5.40954087 108.097497,4.93573771 C108.744655,4.42245095 108.690726,3.75122981 108.043568,3.04052508 C109.877182,5.17263929 112.681534,3.98813139 115.000517,4.26451657 C117.481289,4.54090174 120.015991,4.61986894 122.550694,4.58038534 C123.84501,4.54090174 125.139326,4.58038534 126.433642,4.77780332 C129.399783,5.40954087 132.635573,6.1992128 135.385995,6.08076201 C138.244276,5.96231122 140.131821,7.18630271 142.666523,7.34423709 C145.363015,7.50217148 148.005577,7.89700744 150.594209,8.52874499 C158.144386,10.384474 165.802423,11.8848507 173.244741,13.9379977 C181.010637,16.0701119 188.830464,18.2417097 196.542431,20.4527911 C205.656573,23.0981921 213.530329,27.3229369 221.188366,31.7056161 C228.145315,35.6934594 234.778685,39.9576878 241.897424,43.7875966 C249.447601,47.8938907 257.375287,51.5263816 265.356903,55.1588724 C277.976485,60.8839939 288.438873,68.2279429 296.312629,77.4671045 C303.916737,86.4298809 312.383721,94.9583377 320.581056,103.605245 C326.836917,110.277973 330.558076,117.542955 330.126637,125.676576 Z" id="Path"></path>
                </g>
            </g>
        </g>
    </g>
</svg>