<?xml version="1.0" encoding="UTF-8"?>
<svg width="1024px" height="294px" viewBox="0 0 1024 294" version="1.1" xmlns="http://www.w3.org/2000/svg" xmlns:xlink="http://www.w3.org/1999/xlink">
    <title>Group</title>
    <g id="Gallery" stroke="none" stroke-width="1" fill="none" fill-rule="evenodd">
        <g id="Desktop" transform="translate(0.000000, -90.000000)">
            <g id="Group" transform="translate(0.000000, 90.000000)">
                <rect id="blue-bg" fill="#1B4965" x="0" y="0" width="1024" height="294"></rect>
                <g id="yellow-scribbles" transform="translate(10.000000, 19.000000)" fill="#F7DBA7" fill-rule="nonzero">
                    <path d="M270.693005,205.911789 L274,204.241217 C267.505608,218.959146 264.464593,233.908577 258.767517,247.960153 C257.296219,251.589111 255.147201,254.225737 251.043513,254.725658 C250.438674,254.799488 249.479402,255.163635 249.281942,254.913362 C245.776241,250.49667 240.7818,252.253586 236.364168,251.654808 C235.739741,251.582492 235.131726,251.405914 234.565223,251.132363 C231.646297,249.626345 227.571262,241.128952 228.036571,237.760903 C230.047303,223.208781 234.610695,209.46504 240.764359,196.181176 C241.913616,193.700971 243.776097,192.13301 245.747587,190.627618 C251.076527,186.553174 252.207097,187.020559 253.429856,193.415659 C253.511457,193.840498 253.913852,194.204019 254.190422,194.631986 C256.04356,194.552524 256.036085,192.697376 256.95549,191.776371 C257.858701,190.87226 259.059659,190.227807 259.796553,191.26644 C262.629519,195.262048 268.124774,195.771354 270.744083,200.221207 C272.035985,202.417353 270.426402,203.793854 270.693005,205.911789 Z" id="Path"></path>
                    <path d="M34.7518054,28.2816079 C37.2471315,27.4837054 37.2383117,25.0135239 38.4893669,23.5226171 C39.2410856,22.6272609 40.2974267,20.7255595 40.9901206,21.4490181 C43.4325278,23.9997343 48.2589959,23.3960626 49.3275491,26.182292 C50.3961023,28.9685213 55.8623454,29.4713556 53.4240088,33.9142984 C53.3941572,33.9697929 57.1636057,32.6013801 55.6350658,35.9540593 C54.8576453,37.6561501 54.2423028,39.4273536 53.7971544,41.2443083 C52.699428,45.7691394 53.902992,50.3758587 53.8921369,54.9149018 C53.8792464,60.6673793 49.8139952,65.4466729 51.1274676,71.3602197 C51.5603164,73.3099712 48.0337517,72.7516425 47.0350785,74.5410014 C45.27451,77.6980964 44.3138298,75.3199545 43.1109442,73.8642393 C41.9575852,72.4707863 40.5640562,73.3180924 39.3869516,73.9644001 C37.4438809,75.0323306 35.6453194,76.3723195 33.6649342,77.354978 C29.6023968,79.3710522 26.0249486,82.7839632 20.6272286,79.8718561 C18.3822492,78.660452 14.9852678,79.4157185 12.1242591,79.5409195 C8.89688927,79.681686 6.56099811,78.7903903 4.96868427,75.7158603 C3.26239143,72.4220594 -1.16311483,70.6645083 0.287403704,65.6151866 C2.58190963,57.6239803 6.21973954,50.1667392 12.9397517,45.5343029 C19.5634245,40.9681893 22.7182005,34.8346948 25.2589825,27.8748739 C26.3329633,24.9316357 27.7142803,22.2306783 30.371755,20.3377749 C31.525114,19.515509 32.6872928,18.5978196 34.1127088,19.1872794 C36.0001469,19.9682628 35.2660678,21.8266514 35.3278064,23.2404073 C35.3956511,24.8632827 34.1011752,26.4015629 34.7518054,28.2816079 Z" id="Path"></path>
                    <path d="M175.324601,116.500396 C177.402163,112.283045 180.459328,114.366542 182.622511,113.601124 C185.62994,112.537345 186.935657,113.734569 189.209644,115.090416 C191.292872,116.332332 194.25938,115.991796 196.560437,117.797074 C199.954419,120.461559 201.54218,123.11975 200.83455,127.868362 C199.644673,135.862446 196.59947,143.380662 195.5588,151.472942 C195.160916,154.566716 191.297909,159.298962 187.176151,161.633612 C185.165951,162.772297 184.672373,161.004157 184.124022,159.774201 C183.344622,158.023685 181.875218,156.824572 180.479474,158.163424 C177.17615,161.331473 173.703473,159.083688 170.966756,158.163424 C167.761644,157.088314 165.263532,154.971455 161.282797,154.79332 C158.512713,154.667428 155.784181,150.732073 153.267812,148.263348 C149.014475,144.090059 149.490426,139.127432 151.442076,134.1006 C152.882519,130.386813 154.443209,126.724012 155.995715,123.056804 C156.299795,122.337966 156.692013,121.255303 157.248548,121.105492 C162.654618,119.660892 165.482621,115.225119 169.185719,111.62967 C172.448121,108.472951 174.288967,109.801102 175.324601,116.500396 Z" id="Path"></path>
                    <path d="M107.432019,210.62432 C105.961254,209.678097 108.099567,208.559026 106.664575,207.656527 C104.524537,208.949514 102.97835,211.048656 102.365001,213.493734 C101.252646,218.810348 95.9196884,217.877788 93.2818959,220.72534 C92.6615962,221.395553 92.1135185,220.699379 91.709885,220.125496 C90.2080712,217.989832 88.0360097,217.877788 85.7829516,218.235782 C83.9699755,218.524773 82.4080892,218.548685 81.552224,216.459478 C81.0844681,215.315812 80.1948544,214.9667 79.0953242,215.781067 C75.7690598,218.240564 74.512261,215.507789 72.0756104,213.699375 C62.39448,206.51286 64.6873615,197.512466 67.1307619,188.167742 C68.3079139,183.666178 69.2231766,179.081265 70.0331436,174.497035 C70.808687,170.104782 73.0219218,167.255181 77.432867,166.348583 C77.9426721,166.289348 78.4460511,166.183009 78.9367057,166.030898 C87.0120765,162.70716 87.0100516,162.703061 88.4349185,171.856491 C91.8057311,164.062617 95.412784,167.124691 99.9404995,169.863615 C104.269773,172.481613 109.029004,174.099416 112.102829,178.626941 C113.459523,180.625966 114.309314,182.342832 113.894206,184.744258 C112.999867,189.916718 113.556719,195.382268 110.59359,200.139346 C110.027963,201.047994 110.230455,201.965523 110.979674,203.374268 C112.737303,206.682976 108.916284,208.273451 107.432019,210.62432 Z" id="Path"></path>
                    <path d="M935.398854,111.680982 C939.179506,109.02264 942.95333,107.601244 946.10577,112.525688 C946.587711,113.10709 947.266595,113.494364 948.015443,113.615074 C961.55083,116.195118 967.35572,123.368348 966.983194,136.490661 C966.790481,143.325858 964.527249,149.981122 966.495343,157.161881 C968.222926,163.464055 964.512075,165.48849 957.8984,162.792506 C956.720123,162.312182 955.809671,162.597515 954.666295,163.076333 C951.683806,164.32683 948.704352,164.62722 946.158879,161.919943 C945.510941,161.231078 944.413846,160.609971 943.556504,161.212257 C937.790308,165.263385 932.878419,160.760542 927.666081,159.689978 C924.166152,158.973257 921.174558,158.98455 918.106335,154.899543 C914.616269,150.251398 914.655722,146.687369 915.417466,142.083643 C916.919712,133.009446 919.72087,124.295116 922.933248,115.701996 C923.800454,113.38244 924.771602,111.132148 926.768527,109.417891 C931.109107,105.688985 933.292675,106.145217 935.398854,111.680982 Z" id="Path"></path>
                    <path d="M838.418954,50.0570091 C837.605051,50.6370364 837.294779,50.834946 837.00699,51.0678703 C835.433145,52.3504765 835.396421,56.4266525 832.491553,54.8738235 C829.826508,53.4481134 829.464524,50.212292 830.626921,47.153828 C834.446618,37.1015443 838.252326,27.0439323 842.044044,16.9809919 C843.467999,13.2047251 844.710588,9.34929449 846.309914,5.65143032 C847.447579,3.02151664 848.970462,-0.39699056 852.087425,0.0376492998 C855.794205,0.553736559 852.856361,4.64665867 854.212116,6.81605201 C856.363787,6.56942624 856.634339,4.69689725 857.359807,3.20496358 C858.70432,0.44945344 860.242941,-1.29062838 862.276199,2.66299584 C862.620197,3.33284361 862.812056,4.41982386 863.62521,3.69897631 C868.628539,-0.723541347 870.744986,5.40404336 873.377054,7.07257326 C876.398837,8.9900125 876.54573,13.1537253 875.149504,17.3052591 C871.355038,28.5906717 868.130904,40.0755162 864.759877,51.5047937 C863.797583,54.7695404 862.347397,57.2898426 858.965878,58.6812991 C857.321585,59.3564753 856.228137,61.1110197 855.443463,58.0403766 C855.345285,57.654453 854.363505,57.0820376 854.209118,57.1931714 C851.130377,59.4158481 847.758601,58.6455232 844.351601,58.8358209 C842.454743,58.9416264 840.640324,61.0356618 838.302789,59.3397291 C835.651984,57.4162003 837.530106,55.1531805 837.703229,53.0256526 C837.870977,52.0198631 838.110176,51.0277235 838.418954,50.0570091 L838.418954,50.0570091 Z" id="Path"></path>
                    <path d="M253.722797,87.3773375 C254.224013,85.4123315 253.902955,83.3318101 252.831471,81.6013519 C250.817599,77.896339 250.446939,73.5389078 251.806893,69.5565361 C253.166848,65.5741644 256.137048,62.3193265 260.017124,60.55951 C262.386861,59.4983999 264.251308,60.0988439 266.851139,61.0960769 C271.270838,62.7582747 275.366368,65.1562623 278.9582,68.1849232 C283.206144,71.7545214 287.070344,75.3654518 285.432933,81.6900283 C284.914648,83.6927607 287.965493,87.4111548 286.682013,87.1075511 C280.773724,85.7097716 287.641374,91.708951 284.046254,90.9604626 C280.207281,90.1616241 278.338247,93.6575759 277.589104,95.6302485 C275.389835,101.422016 270.785666,101.38895 266.082121,101.607635 C264.733664,101.67076 261.607905,103.309769 263.043507,99.3832114 C263.091666,99.2509484 262.986939,99.0653292 262.953304,98.9045095 C259.306203,100.089616 258.971382,97.1400007 257.015203,95.4168242 C253.897852,92.6761242 254.085902,90.0924866 253.722797,87.3773375 Z" id="Path"></path>
                    <path d="M786.722797,113.377338 C787.224013,111.412332 786.902955,109.33181 785.831471,107.601352 C783.817599,103.896339 783.446939,99.5389078 784.806893,95.5565361 C786.166848,91.5741644 789.137048,88.3193265 793.017124,86.55951 C795.386861,85.4983999 797.251308,86.0988439 799.851139,87.0960769 C804.270838,88.7582747 808.366368,91.1562623 811.9582,94.1849232 C816.206144,97.7545214 820.070344,101.365452 818.432933,107.690028 C817.914648,109.692761 820.965493,113.411155 819.682013,113.107551 C813.773724,111.709772 820.641374,117.708951 817.046254,116.960463 C813.207281,116.161624 811.338247,119.657576 810.589104,121.630249 C808.389835,127.422016 803.785666,127.38895 799.082121,127.607635 C797.733664,127.67076 794.607905,129.309769 796.043507,125.383211 C796.091666,125.250948 795.986939,125.065329 795.953304,124.904509 C792.306203,126.089616 791.971382,123.140001 790.015203,121.416824 C786.897852,118.676124 787.085902,116.092487 786.722797,113.377338 Z" id="Path"></path>
                </g>
            </g>
        </g>
    </g>
</svg>