<?xml version="1.0" encoding="utf-8"?>
<!-- Generator: Adobe Illustrator 24.2.0, SVG Export Plug-In . SVG Version: 6.00 Build 0)  -->
<svg version="1.1" id="Layer_0_Image" xmlns="http://www.w3.org/2000/svg" xmlns:xlink="http://www.w3.org/1999/xlink" x="0px"
	 y="0px" viewBox="0 0 800 600" style="enable-background:new 0 0 800 600;" xml:space="preserve">
<style type="text/css">
	.st0{fill:#9CAFB7;}
</style>
<path class="st0" d="M265.8,151.7c15.9-31.8,35.3-61.2,55.9-89.9c2.4,0.6,0.3,2.1,1.1,3c1.3,0.6,2.8-2.6,4.5,0.3
	c1.6,2.6,0.6,4.6-0.5,6.6c-5.8,10.7-14.3,19.8-19.4,31.1c-1.7,3.9-2.5,8.6-6.8,11.6c-2.6,1.9-2,6.5-4.4,9.6
	c-1.5,1.9-2.3,4.6-3.9,6.8c-6.4,8.5-10.3,18.7-11.3,29.3c-0.2,1.9-1,3.7-2.8,3.8c-4.9,0.2-9.8,2.2-14.6-2.1
	c-3.5-3.1-3.8-5.9-2.8-9.7c2.4-9.1,7.1-17.1,11.7-25.1c5.4-9.3,11.6-18.3,17.3-27.4c7.7-12.3,16.4-23.9,24.6-35.8
	c0.8-1.1,1.5-3.5,3.2-2.4c1.3,0.8-0.1,2.6-0.8,3.8c-4.6,7.1-9.6,14-14.7,20.8c-4.8,6.7-9.1,13.6-13,20.8
	c-6.6,11.5-13.8,22.6-19.8,34.4C267.8,144.4,266.1,147.8,265.8,151.7z"/>
<path class="st0" d="M240.7,288.8c-3,2.4-5.1-1.3-6.1-2.1c-2.6-2-6.6,0.1-7.5-2.4c-1.5-3.7-4.8-6.8-3.4-11.7
	c2.6-9.5,6.6-18.5,10.2-27.6c2.7-6.6,5.2-13.2,9.1-19.3c1.7-2.7,3.7-5.1,6.7-6.4c3-1.4,5.7-1.5,8.6,1c2.2,1.8,4.9,3.1,6.9,5.2
	c1.9,2.1,3.4,4.2,1.2,7c-1.6,2-1.3,4.5-2.1,6.8c-3.2,9-4.4,18.7-9.5,27.1c-3.8,6.2-6.6,12.8-9.5,19.4
	C244.4,287.9,243.6,290.2,240.7,288.8z"/>
<path class="st0" d="M428.7,221.3c-0.7,1.6-1.2,2.6-1.6,3.6c0.5,0.7,1,0.3,1.5,0.1c1.1-0.3,1.4-2.3,2.7-1.5c1.5,1-0.4,2.1-0.3,3.3
	c1.7,0.4,2.1-1.7,3.5-1.8c2.1,3.3,1,5.9-1,8.9c-5.5,7.9-10,16.6-13.3,25.7c-1.2,3.5-5.7,5.2-5.7,9.2c-0.1,5.1-2.5,9.6-5.2,13.3
	c-4.6,6.3-5.6,13.8-8.4,20.7c-0.8,1.9,0.3,4.3-1.6,5.9c-0.6,0.5-1.6,1.7-2,0.7c-1.4-3.4-4.1-1.7-6.3-2.3c-4.1-1-5-5.1-5.4-8.7
	c-0.6-5.6,1-11.1,3.3-16.1c8.7-19.2,18.9-37.7,31.5-54.7C422.4,225.1,424.1,221.8,428.7,221.3z"/>
<path class="st0" d="M370.8,145c-1,3-1.9,6.1-3,9.2c-6.8,19.5-15.7,38.1-25.3,56.4c-3.7,7-7.9,13.7-10.7,21.2
	c-0.8,2.1-2.2,3.8-4.8,1.6c-0.7-0.5-1.5-0.9-2.3-1.1c-5.3-1.9-7.4-5.9-5.7-11.5c1.7-5.7,4.9-10.6,7.9-15.6
	c12.9-21,25.1-42.4,34.4-65.3c1.2-2.9,1.5-2.9,3.6-0.7c0.3,0.3,0.6,0.4,1,0.4C369.7,139.3,370,142.1,370.8,145z"/>
<path class="st0" d="M241.2,364.3c-3.5,8.7-9.3,15.3-12.6,23.2c-3.4,7.9-7.5,15.6-9.6,24.1c3.1-6.8,6.2-13.6,9.3-20.4
	c3.6-7.8,8.1-15,12.6-22.3c2.2-3.7,4.7-3.5,7.3-1.5c2.5,2,3,5.3,0.7,7.6c-4.7,4.7-7.4,10.7-9.1,16.6c-3,10.3-8.3,19.8-9.9,30.6
	c-0.4,2.5-2.2,4.6-2.5,7.4c-0.4,3.1-0.6,5.8,1,8.7c0.9,1.7,3.1,3.9,1.1,5.8c-1.6,1.5-3.9,2.7-6.6,1.3c-1-0.5-2.5-0.2-3.8-0.2
	c-7.4-0.3-11.8-5.1-10.7-12.6c1.5-10.1,5.3-19.5,9.3-28.8c5.2-12.2,10.9-24.1,18.7-35C237.2,367.1,238.2,365.3,241.2,364.3z"/>
<path class="st0" d="M444,459.2c-10.1,0-13.1-4.4-9.7-12.8c2.7-6.5,7.2-11.9,11.6-17.3c10.2-12.6,20.9-24.8,32.2-36.5
	c2.8-2.8,6.1-3.9,9.6-4.9c1.2-0.4,3.9-1.1,3.8,0c-0.2,2.1,1.9,4.1,0,6.4c-8.7,10.3-16.4,21.2-24.4,32c-3.5,4.7-7.4,9.2-10.8,14.1
	c-2.3,3.3-4.6,6.8-2.3,11.2c0.3,0.5,0.1,1.9-0.1,2C449.8,454.6,447.4,458.9,444,459.2z"/>
<path class="st0" d="M547,231c5.2-5.8,8.4-12.9,13.5-18.7c1.6-1.6,3.2-3.3,4.6-5c2.1-3,4.3-0.7,5.7,0.2c1.6,1.2,1.9,3.4,0.7,5
	c0,0-0.1,0.1-0.1,0.1c-5.9,8.4-10.8,17.4-14.8,26.8c-2.9,6.6-7.6,12.4-8.6,20.2c-0.4,2.9-2.4,6.3-3.5,9.6c-1.5,4.4-4.5,0.8-6.9,0.6
	c-0.4,0-0.7-1.1-1-1.1c-1.4,0-2.3,3.7-4,1.1c-2.3-3.5-4.8-6.7-3.1-11.9c2.6-8.1,6.5-15.5,10.8-22.7c5.8-9.8,11.2-19.9,19.5-27.9
	c0.6-0.6,1.2-1.2,1.8-1.8c0.7-0.6,1.6-1,2.3-0.4c0.9,0.9,0.4,1.9-0.4,2.6c-7,5.7-10.5,14-15.4,21.3C547.6,229.8,547.3,230.4,547,231
	z"/>
<path class="st0" d="M373.8,375.4c2.2-2,4.6-3.9,6.4-6.2c2.1-2.7,4.5-3.3,7.4-2.1c1.8,0.7,1.4,2.6,1.2,3.7c-0.3,3-2.4,5.5-5.2,6.5
	c-0.7,0.3-1.8-0.3-1.8,1c0,6.2-5.4,9.5-7.8,14.5c-0.7,1.5-2.1,3-3,4.5c-2.8,4.6-5,9.6-10.9,11.3c-1.4,0.4-3.5,1.6-2.8,3.7
	c2.2,6.3-2.2,10.5-4.7,15.2c-4.1,7.7-9.4,14.8-13.2,22.6c-0.4,0.9-0.7,2.2-1.9,1.8c-1.5-0.4,0.5-1.8-0.6-2.6c-1.9,1-3.6,3.8-6.3,0.5
	c-1-1.2-2.4,0.8-3.1,2c-0.5,0.9-1.1,1.8-2.3,1.1c-1.4-0.8-0.2-1.7,0.2-2.5c6.9-14,15.4-27.1,24.2-40l23.3-34L373.8,375.4z"/>
<path class="st0" d="M458.5,336.8c-1.5,0.4,2.3-4.7-1.7-1.6c-0.1,0.1-0.3,0.2-0.4,0.2c-2.7-2.1-5-2-7.5,0.6
	c-0.6,0.7-5.6-4.9-5.7-6.5c-0.1-2.4,0.4-4.8,1.6-7c6.1-12.1,14.9-22.6,25.8-30.7c5.4-4,11-3.6,16.6-0.6c3,1.6,3,3.6,0.5,6
	c-2.6,2.6-5.2,5.2-7.5,8.1c-2.7,3.2-5,6.8-8,9.9c-3.9,4-5.3,9.8-8.2,14.6C462.4,332.2,461,334.9,458.5,336.8z M449.1,325.6
	c4.8-7.4,9.6-14.8,14.9-21.8C458,308.3,450.7,318.9,449.1,325.6L449.1,325.6z"/>
<path class="st0" d="M583.5,344.1c-0.6,2.1-1,3.4-1.6,5.4c1-0.7,1.5-1,1.7-1.4c1.4-3.3,4.1-2.4,6.1-1.4c2.1,1.1,2.9,3.7,1.9,5.9
	c-1.4,3.6-3.1,7.1-5.1,10.4c-2.8,4.5-6,8.9-7.9,13.9c-2,5.2-4.9,10.2-3.7,16.3c0.6,2.9-1.8,4.6-4.4,3.4c-1.3-0.5-2.7-0.7-4.1-0.5
	c-8.9,0.4-13.5-5.9-10.1-14.4c4.9-12,12.8-22.1,21-32C578.9,347.8,579.9,345.3,583.5,344.1z"/>
<path class="st0" d="M258.4,531.6c-0.1,3.2,2.7,4.8,3,7.3c-4,0.5-6.4-1.6-7.3-6c-0.9-4.8,0.6-9.2,2.9-13c5-8.1,9.1-16.7,16-23.7
	c2.7-2.7,4.6-7.2,7.2-10.5c7.5-9.5,15.4-18.7,23.1-28c1.6-1.9,3.4-3.4,5.5-4.6c0.9-0.7,2.3-0.7,3.2,0.1c1.1,0.9,1,2,0.4,3.1
	c-0.8,1.7-1.8,3.2-2.9,4.7c-10.5,13.3-21.2,26.4-31.4,39.9c-4,5.4-7.1,11.3-9.2,17.7c-1,2.9,0.1,6.1,0.4,9.2c0.1,0.8,1.3,2-0.2,2.6
	c-2.8,1.2-5.2,2.4-2.7,6.1c0.6,0.8-0.7,1.3-1.6,1.3c-1.6,0-3.5,0-3.7-2C261,533.8,260,532.9,258.4,531.6z"/>
<path class="st0" d="M326.6,313c-0.9-0.7-1.4-0.8-1.8,0.2c-1.5,3.6-2.7,7.3-4.6,10.6c-1.2,2-0.9,6.1-5.4,4.9
	c-0.7-0.2-0.6,0.7-0.2,1.2c0.7,1.2,0.3,2-0.5,3c-1.3,1.6-1.9,3.8-1.4,5.9c0.7,4.3-2.3,6.4-6.2,4.6c-0.5-0.2-1.3-0.9-1.3-0.6
	c-1,7-4.8-2.3-6.3,1.1c-1.1-0.9-1.8-2.3-1.8-3.7c-0.3-3.5,1.1-6.4,2.7-9.3c6.1-10.9,14.8-19.6,23.7-28c2.2-2,5.4-2.1,8.2-3
	c1.6-0.5,2.6,0.9,3.2,2.2c0.8,1.8-0.1,2-1.5,1.5c-0.2,3.2-2.3,5.4-4,7.8C328.5,312.6,328,313.9,326.6,313z"/>
<path class="st0" d="M438.9,176.9c-1.2,1.8-0.4,4.9-4.3,5.1c-2.8,0.2-2.3-1.2-2.3-2.7c-2.4,0.2-1.5,3.1-3.6,3.7
	c-0.9-3.9,0.6-7.7,0.4-11.5c0-0.1,0-0.2,0.1-0.4c3-2.6,3.7-6.5,5.4-9.9c0.7-1.4,0.9-3,1.8-4.3c6.9-10.1,12.4-21,19.8-30.8
	c5.8-7.7,10.9-15.8,17.1-23.2c1.5-2.1,3.5-4,5.7-5.3c-2.4,4.3-4.1,7.5-5.9,10.7c0-0.1,0.1-0.3,0.1-0.4c-4.7,3.7-6.6,9.5-10.7,13.8
	c1.4,1.2,1.8-0.1,2.5-0.2c1.1-0.2,1.8,0.5,2.3,1.5c0.2,0.5,0.6,1.2-0.1,1.4c-3.4,0.9-2.6,3.7-2.7,5.9c-0.1,2.5-1.4,3.8-3.4,4.9
	c-3,1.7-4.7,4.1-4.4,7.7l-1.6,2.3c-3.2,1.6-7.9,9.3-7.6,12.6c-1.9,0.1-2.6,3.6-5.1,1.7c-0.7-2.1-1.2-3.1-3.1-0.5
	c-2.5,3.3-2.1,7.7-5,10.6c-0.4,0.3-0.4,0.9-0.1,1.2c0.1,0.1,0.2,0.2,0.3,0.2c0.4,0.4,1,0.3,1.4-0.1c0.1-0.2,0.2-0.3,0.2-0.5
	c0.5-3.3,3.2-5.7,4-8.8c0.3-1.3,0.7-2.5,2.4-2.2c1.1,6.2-3.7,10.4-5.3,15.6c-0.2,0.7-2.8-1.2-1.9,1.2c0.6,1.1,1.9,1.5,3,0.9
	C438.5,177.2,438.7,177.1,438.9,176.9z M453.8,138.1l-1.1-0.8c-2,3.2-4.1,6.4-6,9.6c-0.2,0.4-0.7,1.1,0,1.5c0.5,0.3,1.3,0.4,1.4-0.2
	C449.2,144.3,452.7,141.9,453.8,138.1L453.8,138.1z"/>
<path class="st0" d="M535.9,461.3c-0.9,2.4-0.2,4.6,0.6,6.6c0.4,1.1,0.7,1.9-0.6,2.4c-1.2,0.4-1.9-0.4-2.4-1.3
	c-0.9-2.3-1-4.8-0.2-7.1c2.4-8.5,7-15.8,12.7-22.5c1.7-2,3.7-3.8,5-6c2.4-4,6.5-5.1,10.3-6.4c1.8-0.6,2.2,1.8,2.5,3.1
	c0.1,1-0.3,2-1,2.6c-6.4,4.2-7.5,12.1-11.9,17.7c-1.4,1.9-0.8,5.6-2.6,8.1c-1.5,2-2.3,4.4-5,5.3c-1.6,0.5-0.4,2.6-1.1,3.8
	c-0.4,0.6-0.6,1.4-1.4,1.5s-1.8-0.6-1.6-1.1C540.3,464.8,536.4,463.9,535.9,461.3z"/>
<path class="st0" d="M373.8,375.4l-0.6,1.4c-5.7,5-10.2,11-14.7,17c-6.1,8.2-11.6,16.9-16.9,25.7c-4.5,7.4-10.2,14.1-13.4,22.4
	c-1.3,3.6-3.8,6.7-7.1,8.7c-0.9-5.1,2.3-8.3,4.2-11.9c4.9-9.4,11.1-18,17.1-26.6c11-15.6,21.3-31.7,34.9-45.2
	c0.8-0.8,1.4-1.8,3.3-1.3C379.5,369.7,375.6,371.9,373.8,375.4z"/>
<path class="st0" d="M539.7,315.8c-1.7,1.2,0.3,4.6-2.3,4c-2.2-0.5-1.4-3.1-0.8-4.8c3.2-10.2,10.4-18.6,19.9-23.4
	c1.5-0.8,3.6-2,5,0.2c1.2,1.9-0.7,3.1-1.7,4.3c-4.5,5.1-8.8,10.3-9.9,17.3c-0.3,1.8-1.7,2.4-3.2,3c-0.5,0.2-1,0.5-1.4,1
	C542.4,320.6,540.3,321,539.7,315.8z"/>
<path class="st0" d="M451.7,127.1c-0.5,5.2-4.9,8.1-7.4,12.2c-1.8,3-3.3,6.4-6.2,8.8c-0.7,0.6-1,1.9-2.2,1.2
	c-0.8-0.5-1.1-1.5-0.7-2.4c0-0.1,0.1-0.2,0.2-0.2c3.8-6.1,7.5-12.2,12.1-17.8c1.1-1.3,2.8-1.3,4.2-1.8L451.7,127.1z"/>
<path class="st0" d="M451.8,127.2c-0.5-1.2-1.2-2.2-0.2-3.6c5.5-7.5,10.9-15.1,17.3-21.9c0.5-0.5,0.8-1.8,1.9-1
	c0.7,0.5,0.5,1.3,0,1.9c-6.2,7.9-12.3,15.9-18,24.3c-0.2,0.2-0.8,0.2-1.2,0.2L451.8,127.2z"/>
<path class="st0" d="M429.1,171.2c0,0.1,0,0.2-0.1,0.4c-0.8,1.9-2.4,3.5-2.3,5.7c0,0.8,0.2,2-1.1,1.9c-1.1-0.1-1-1.1-0.9-2
	c0.9-7.8,3.5-15.1,6.5-22.2c0.5-1.2,2-2.6,3.3-1.9c1.6,0.7,0.4,2.3-0.2,3.3C431.6,160.9,430.4,166.1,429.1,171.2z"/>
<path class="st0" d="M473.1,108.2c0,0.1-0.1,0.3-0.1,0.4c1.8-1.8,4.9-2.4,5.2-5.8c0-0.6,1.5-2.6,2.9-1.3c1.4,1.2-0.1,2.5-0.9,3.2
	c-3.7,3.3-6.5,7.6-8,12.3c-1.4-1.6-3.4-2.7-0.7-4.6C473,111.4,472.4,109.5,473.1,108.2z"/>
<path class="st0" d="M455,145.5l1.6-2.3l1.9-1.5l0.7,0.5l-4.3,7.7l-0.9-0.3L455,145.5z"/>
<path class="st0" d="M440.6,174.7c-0.8-2.9,1.3-4.9,2.4-7.2c1.1-2.2,2.4-4.4,3.6-6.6c0.4,1,0.3,2.2-0.3,3.2
	C444.3,167.6,442.5,171.1,440.6,174.7z"/>
</svg>
