<?xml version="1.0" encoding="UTF-8"?>
<svg width="72px" height="81px" viewBox="0 0 72 81" version="1.1" xmlns="http://www.w3.org/2000/svg" xmlns:xlink="http://www.w3.org/1999/xlink">
    <title>scribbles-scribbles-75</title>
    <g id="Home" stroke="none" stroke-width="1" fill="none" fill-rule="evenodd">
        <g id="Desktop" transform="translate(-108.000000, -945.000000)" fill="#1B4965" fill-rule="nonzero">
            <g id="About" transform="translate(-5.000000, 775.000000)">
                <g id="Top" transform="translate(113.000000, 115.000000)">
                    <g id="scribbles-scribbles-75" transform="translate(0.000000, 55.000000)">
                        <path d="M42.0183775,3.28173982 C42.5696468,2.5079621 42.2767488,1.72450929 42.399562,1.00118032 C42.4711644,0.579852712 42.7283771,-0.122052822 42.968674,0.0182361407 C44.6695216,1.01200722 46.9624217,-0.591295216 48.414167,1.28152789 C54.3082759,8.88316251 62.2503537,14.4550992 68.6883168,21.5174621 C69.1406403,22.0136566 69.625405,22.4805954 70.0835216,22.9717219 C72.7307264,25.8102122 72.7295677,25.811364 69.4905422,27.6480207 C66.1579004,29.536969 65.8320977,29.5496387 62.6674553,27.0295053 C56.0927756,21.7938936 49.5465978,16.521194 43.2796464,10.9206927 C41.3252937,9.17433698 39.5512216,7.24208112 39.1169725,4.50517936 C38.988141,3.76727908 38.9655923,3.01490801 39.0500045,2.27069177 C39.1350469,1.63006188 39.3512445,0.817583762 40.1416521,0.755617045 C40.9619519,0.691116372 40.8282476,1.53469303 40.9990276,2.05231092 C41.1528917,2.52662123 41.2754732,3.02074245 42.0183775,3.28173982 Z" id="Path"></path>
                        <path d="M17.0414242,34.0039624 C20.3105612,34.214749 23.0962246,35.7312992 25.8262528,37.3937073 C31.7552994,41.0044418 37.0700609,45.5473679 43.1163551,48.9827948 C44.2853819,49.6471551 44.2743469,50.2581811 43.2025665,51.2680551 C40.0895297,54.2019074 37.0643135,52.8736506 34.1354243,51.2005756 C28.2571849,47.8432951 22.4727436,44.3185911 16.6319775,40.894063 C15.1183349,40.006626 13.5474479,39.2170459 11.9869063,38.4142482 C11.0841003,37.9504714 10.9470816,37.1632102 11.0149013,36.2841212 C11.0838704,35.374191 11.6528658,35.1432302 12.4977377,34.9268783 C14.000805,34.5419435 15.4480073,33.9457584 17.0414242,34.0039624 Z" id="Path"></path>
                        <path d="M13.1151279,80.9447446 C9.63381177,80.9447446 6.15483205,80.9599963 2.6751514,80.9359031 C1.56743865,80.9283878 0.39804352,80.9206515 0.0524820024,79.5641402 C-0.263172907,78.3263264 0.920474591,78.2266382 1.59010225,77.6952624 C2.88052569,76.6714136 4.39057578,76.199276 5.998056,75.9643124 C12.9908286,74.9420109 19.9894423,74.5036922 27.0060467,75.8095857 C27.7653942,75.9510501 28.5703026,75.9342512 28.9097893,76.7392723 C29.293435,77.6497285 28.3539469,77.8966282 27.9544133,78.4545285 C26.088755,81.0596845 23.3466928,81.0601266 20.4917799,80.9765741 C18.0349987,80.9045157 15.5740119,80.9615435 13.1151279,80.9615435 L13.1151279,80.9447446 Z" id="Path"></path>
                    </g>
                </g>
            </g>
        </g>
    </g>
</svg>