<?xml version="1.0" encoding="UTF-8"?>
<svg width="410px" height="233px" viewBox="0 0 410 233" version="1.1" xmlns="http://www.w3.org/2000/svg" xmlns:xlink="http://www.w3.org/1999/xlink">
    <title>scribbles-scribbles-50</title>
    <g id="Home" stroke="none" stroke-width="1" fill="none" fill-rule="evenodd">
        <g id="Desktop" transform="translate(-658.000000, -1833.000000)" fill="#1B4965" fill-rule="nonzero">
            <g id="About" transform="translate(-5.000000, 775.000000)">
                <g id="Middle" transform="translate(47.000000, 678.000000)">
                    <g id="scribbles-scribbles-50" transform="translate(616.000000, 380.000000)">
                        <path d="M148.775282,164.905639 C136.421746,157.137022 128.76351,146.287849 125.22292,132.94734 C118.451772,107.43759 122.363924,83.5455056 138.642755,62.4531114 C146.09086,52.6408615 157.12717,46.186605 169.328269,44.5076049 C179.901653,42.9485032 189.148884,46.4748579 196.96841,53.6189981 C204.744925,60.7236976 209.763997,69.5858975 210.605088,80.044847 C211.32611,89.0086364 210.53221,98.1110658 207.094964,106.633837 C204.347079,113.446317 201.519744,120.267163 198.156571,126.789216 C196.130305,130.719539 193.126149,134.177769 190.359148,137.687989 C183.85801,145.934675 177.235607,154.089333 170.765532,162.991571 C173.18845,162.296579 175.71531,161.844804 178.015768,160.862373 C185.441629,157.690984 191.384826,152.454338 196.693621,146.530468 C209.485624,132.255335 218.025573,115.368153 226.0942,98.1941303 C233.11206,83.2544812 240.251783,68.3745907 249.86281,54.8548059 C268.685823,28.3703936 293.848088,11.4909805 325.623199,4.3976351 C345.085394,0.0531851507 364.784147,0.794191745 384.487678,0.87187792 C391.903384,0.901757218 399.322077,0.299390567 406.739575,0 C407.304615,0.0356439237 407.866497,0.110522511 408.421161,0.224094736 L406.801103,1.74435343 L410,4.34982822 C409.078861,5.44460571 408.363216,6.94753441 407.189391,7.53794934 C405.389557,8.40413464 403.445474,8.93085068 401.454674,9.09167284 C396.082559,9.57631506 390.683562,9.7573836 385.302486,10.1541807 C379.156184,10.6071508 373.020037,11.2005537 366.873137,11.6481456 C365.379721,11.7575038 363.845087,11.3601092 362.359437,11.504725 C355.250777,12.1967295 348.105081,12.6801765 341.074079,13.8502499 C334.760514,14.9014036 328.631536,17.0437493 322.323944,18.1528688 C317.517535,18.9972578 313.103595,20.691414 308.711758,22.6072746 C298.143152,27.2170527 288.072153,32.4291975 279.351202,40.3472115 C267.120723,51.4515538 257.384847,64.472952 248.905829,78.3889363 C243.852707,86.6822343 240.602437,96.0577604 236.238078,104.794467 C231.730352,113.818015 226.923942,122.693362 222.107377,131.557355 C219.680278,136.023712 217.332031,140.622136 214.245439,144.618791 C210.3076,149.71859 205.790316,154.397688 201.270642,159.011649 C198.339365,162.004359 195.228879,164.981533 191.722936,167.219492 C183.586806,172.413112 174.622727,173.990141 165.218986,171.372117 C162.351627,170.573145 160.303258,170.83907 157.978906,172.878034 C140.8476,187.852096 121.545009,200.140171 100.729705,209.323009 C88.2799929,214.865021 75.7890627,220.471572 62.9080522,224.845304 C46.2952942,230.48532 29.0666515,233.629818 11.3666868,232.894189 C8.47704678,232.749455 5.61661305,232.245809 2.85122955,231.394846 C1.70966247,231.051234 0.939657257,229.472412 0,228.455321 C1.02985958,227.766304 2.00177462,226.630891 3.10272079,226.488068 C4.9802432,226.245448 6.94079954,226.602207 8.86252706,226.752798 C10.1594094,226.854388 11.4682391,227.251783 12.7412267,227.146608 C26.4131449,225.972699 39.8965525,223.173398 52.9063475,218.807893 C86.8737925,207.552361 117.994787,191.037476 145.441978,167.884605 C146.452722,167.02946 147.413885,166.121129 148.775282,164.905639 Z M312.393924,11.3738536 L342.441451,4.42452647 C334.592057,5.58802634 326.782687,7.08139366 319.029469,8.82395433 C316.759477,9.33548791 314.642411,10.5539657 312.448881,11.4413808 C307.78584,11.3493526 304.253613,14.0611977 300.600717,16.4694691 L312.393924,11.3738536 Z M200.5317,79.3522449 C200.5317,78.1271936 200.630863,76.8931786 200.516766,75.6782864 C198.678669,56.1061509 182.655512,51.0499761 168.347393,55.0370696 C163.681962,56.3368191 159.751889,58.8711811 155.993857,61.6362114 C152.644424,64.1000583 149.312315,66.8250503 146.725121,70.0400628 C140.266396,78.0668374 136.582438,87.5200498 134.605753,97.5427616 C131.854881,111.486832 131.296343,125.428513 136.577062,139.015227 C139.667238,146.968499 144.215585,153.795919 151.710741,158.389562 C153.867233,159.711422 155.255513,159.33315 156.920373,157.732217 C169.143085,145.96575 180.383728,133.410469 188.700262,118.485162 C195.483357,106.305165 200.409837,93.5461066 200.5317,79.3522449 Z M168.023023,150.516367 C174.362275,144.271594 181.298893,138.498316 184.660273,129.90742 C179.115121,136.777268 173.569371,143.646917 168.023023,150.516367 Z M352.212572,3.30226003 L352.306956,3.67037298 L371.195082,3.67037298 C371.186719,3.54727028 371.177759,3.42476515 371.169396,3.30226003 L352.212572,3.30226003 Z" id="Shape"></path>
                    </g>
                </g>
            </g>
        </g>
    </g>
</svg>