<?xml version="1.0" encoding="utf-8"?>
<!-- Generator: Adobe Illustrator 24.2.1, SVG Export Plug-In . SVG Version: 6.00 Build 0)  -->
<svg version="1.1" id="Layer_1" xmlns="http://www.w3.org/2000/svg" xmlns:xlink="http://www.w3.org/1999/xlink" x="0px" y="0px"
	 viewBox="0 0 263 151.8" style="enable-background:new 0 0 263 151.8;" xml:space="preserve">
<style type="text/css">
	.st0{fill:#1B4965;}
</style>
<g id="Home">
	<g id="Desktop" transform="translate(-363.000000, -2609.000000)">
		<g id="Pull-Quote" transform="translate(0.000000, 2550.000000)">
			
				<g id="scribbles-scribbles-87" transform="translate(494.477304, 188.086231) rotate(49.000000) translate(-494.477304, -188.086231) translate(414.977304, 84.086231)">
				<path id="Shape" class="st0" d="M108.5,49.8c-0.5,1.8-1,3.2-1.1,4.7c0,0.8,0.1,1.4-0.8,1.6c-3.3,0.4-4.5,3.5-7,4.9
					c-3,1.7-3.9,4.5-4.6,7.8c-1.3,5.5,0.1,11-0.5,16.5c-0.3,3-0.2,6,0.2,9c0.6,5.5-1,10.7-2.2,16c-0.8,3.6-0.6,7.4-2.9,10.8
					c-3.6,5.2-8.4,8.6-14,11.1c-1.6,0.7-2.7,0-3.7-1.8c0.3,2.7-0.8,2.9-2.9,3.2c-4.5,0.5-8.8,1.5-12.9-1.2c-0.3-0.2-0.7-0.2-1-0.1
					c-5.3,2-10.5,0.5-15.7-0.4c-1.7-0.3-2.8-0.5-4.4,0.8c-1.5,1.3-3.3,2.9-6,2.4c-1.9-0.4-0.9,1.9-1.9,2.8c-9.9,9-13.2,20.7-14,33.6
					c-0.3,5.6-0.4,11.1-0.1,16.7c0.2,5,1.6,10.2,3.7,14.9c0.6,1.4,1.3,2.6,0.5,4c-0.9,1.6-2.4,0.3-3.5,0.3c-4.1-0.1-5.7-2.6-7.1-6.4
					c-1.4-3.8-3.5-7.4-4.1-11.4c-1.5-10.3-3.7-20.5-1.4-31c2.6-12.1,7.2-22.8,17.2-30.9c2.8-2.2,5.4-5,8.8-5.2
					c5.2-0.3,10.5-1.1,15.8,0.1c5.3,1.2,10.8,1.4,16.1-0.2c10.6-3.3,14.9-11.7,16.7-21.6c1.9-10,0.7-20.3,1.4-30.5
					c0.9-13.5,7.1-22.5,19.4-26.6c4.8-1.6,10-2,15-1.1c6.4,1.2,12.7,2,19.2-0.3c5.6-1.9,11.3-7.8,11.7-13.7
					c0.4-6.6,0.5-13.2,0.8-19.8c0.1-2.4,0.6-4.7,1.5-6.9c0.6-1.5,2-2.4,3.5-1.8c1.6,0.6,0.8,1.9,0.1,2.8c-0.6,0.7-0.4,1.3,0.4,1.8
					c0.8,0.5,1.2,0.3,1.6-0.6c1.2-2.3,2.2-1.8,3,0.3c0.6,1.6,2.6,1.1,3.6,3.1c1.7,3.4,2,6.7,2,10.2c0,0.4,0.1,0.7,0,1.1
					c-0.5,2-0.9,8.4-0.3,10.9c0.4,1.6-0.8,3.1-0.1,4.7c0.2,0.5-0.6,1-1.2,0.6c-0.4-0.2-0.9-0.7-0.9,0.2c0,6-0.3,7.5-2.3,10
					s-5.1,3.7-7.1,6.4c-0.6,0.8-1.8,0.2-2.5-0.5c-0.6-0.4-1.1-1.1-1.8-0.4c-0.6,0.5-0.9,1.5-0.5,1.9c1.7,1.9,0.2,2-1.1,2.3
					c-2.9,0.6-5.9,2-8.7,1.6c-4.9-0.7-9.9-0.7-14.8-1.1c-1.8-0.2-3.7-0.6-4.6-2.7C112.1,51.2,110.1,51.1,108.5,49.8z M21,129.7
					c-8.3,4.9-15.7,16.4-15.2,23.6c2-4.3,4-8.5,6.7-12.5C15,136.9,18.5,133.6,21,129.7z M147,32.1c-0.3,1.7-1.1,2.7-2.6,2.9
					c-0.8,0.1-1.2,0.2-1.5,1.1c-1.1,3-3.6,4.8-6.4,6c-0.6,0.2-1.7,0.4-1.2,1.3c0.4,0.8,1.2,0.7,2.1,0.3c3.7-1.6,6.3-4.8,9.2-7.4
					C147.2,35.7,149,34,147,32.1z M91.9,51.4c-0.1-0.6-0.6-0.7-1.2-0.5c-1.6,0.4-6.8,6.2-7,7.9c0,0.3,0.1,0.7,0.3,0.9
					c0.4,0.3,0.8,0.2,1.1-0.3c1.5-2.5,3.9-4.3,5.9-6.4C91.4,52.5,92,52.3,91.9,51.4L91.9,51.4z M72.3,118.5c2.8-1.4,4.1-3.8,4.2-6.9
					L72.3,118.5z"/>
			</g>
		</g>
	</g>
</g>
</svg>
